<svg xmlns="http://www.w3.org/2000/svg" viewBox="0 0 303 55"><defs><style>.cls-1{fill:#0ca292;}.cls-2,.cls-3{fill:#eaff46;}.cls-2{fill-rule:evenodd;}</style></defs><title>botao-whatsapp</title><g id="Camada_2" data-name="Camada 2"><g id="Camada_1-2" data-name="Camada 1"><path id="Retângulo_15_copiar_4" data-name="Retângulo 15 copiar 4" class="cls-1" d="M27.5,0h248A27.5,27.5,0,0,1,303,27.5h0A27.5,27.5,0,0,1,275.5,55H27.5A27.5,27.5,0,0,1,0,27.5H0A27.5,27.5,0,0,1,27.5,0Z"/><path class="cls-2" d="M42.46,16.12a15.75,15.75,0,0,0-11.24-4.66A15.91,15.91,0,0,0,17.44,35.3l-2.26,8.24,8.43-2.21a15.85,15.85,0,0,0,7.6,1.94h0A15.9,15.9,0,0,0,42.46,16.12ZM31.22,40.58h0a13.24,13.24,0,0,1-6.73-1.84L24,38.45l-5,1.32,1.34-4.88-.32-.5a13.22,13.22,0,1,1,11.2,6.19Zm7.24-9.9c-.39-.19-2.35-1.16-2.71-1.29s-.63-.2-.89.2-1,1.29-1.26,1.56-.47.3-.86.1a10.93,10.93,0,0,1-3.2-2,12,12,0,0,1-2.21-2.76c-.23-.39,0-.59.18-.81a10.24,10.24,0,0,0,1-1.36.73.73,0,0,0,0-.69c-.1-.2-.9-2.16-1.23-2.95s-.65-.67-.89-.68l-.76,0a1.44,1.44,0,0,0-1.06.5,4.44,4.44,0,0,0-1.39,3.31,7.68,7.68,0,0,0,1.62,4.11c.2.27,2.8,4.28,6.79,6a21.15,21.15,0,0,0,2.26.84,5.51,5.51,0,0,0,2.5.16A4.09,4.09,0,0,0,39,33a3.27,3.27,0,0,0,.24-1.89C39.13,31,38.86,30.88,38.46,30.68Z"/><path class="cls-3" d="M69.36,28.85H63.24c-.29.95-.6,2.16-.92,3.65H61a63.49,63.49,0,0,1,2-6.85,41.45,41.45,0,0,1,2.61-5.75H67a42.31,42.31,0,0,1,2.59,5.73,63.14,63.14,0,0,1,2,6.87H70.28C70,31,69.65,29.8,69.36,28.85Zm-.31-1.08a37.18,37.18,0,0,0-2.75-6.55,37.21,37.21,0,0,0-2.76,6.55Z"/><path class="cls-3" d="M78.24,31.56a.72.72,0,0,1,.08.35.48.48,0,0,1-.29.48,3.22,3.22,0,0,1-1.49.29A2.65,2.65,0,0,1,74.67,32a2.2,2.2,0,0,1-.7-1.72V23.57H72.09v-1H74V19.9h1.22v2.7h2.59v1H75.19v6.52c0,1,.43,1.51,1.3,1.51A4,4,0,0,0,78,31.3.55.55,0,0,1,78.24,31.56Z"/><path class="cls-3" d="M87.93,27.68H80.77a4.75,4.75,0,0,0,.84,2.91,2.63,2.63,0,0,0,2.22,1.05,3.35,3.35,0,0,0,1.65-.38,2.88,2.88,0,0,0,1.12-1.21.42.42,0,0,1,.38-.23,1.55,1.55,0,0,1,.79.34A3.42,3.42,0,0,1,86.31,32a4.49,4.49,0,0,1-2.48.67,4.2,4.2,0,0,1-2.29-.62A4,4,0,0,1,80,30.28a6.65,6.65,0,0,1-.52-2.75,5.53,5.53,0,0,1,1.19-3.75A4.09,4.09,0,0,1,84,22.42a3.78,3.78,0,0,1,3,1.17A4.67,4.67,0,0,1,88,26.85,7.69,7.69,0,0,1,87.93,27.68Zm-1.22-1q0-3.24-2.81-3.24a2.86,2.86,0,0,0-2.16.82,3.88,3.88,0,0,0-.93,2.42Z"/><path class="cls-3" d="M98.08,31.68a2.9,2.9,0,0,0,.13.7,2.11,2.11,0,0,1-.93.21q-.27,0-.36-.39a8.2,8.2,0,0,1-.09-1.53V25.79A2.89,2.89,0,0,0,96.36,24a1.85,1.85,0,0,0-1.51-.57A5,5,0,0,0,91.53,25v7.5H90.31V26a12,12,0,0,0-.22-3.17,2.36,2.36,0,0,1,.92-.27c.35,0,.52.35.52,1v.17a5.91,5.91,0,0,1,1.67-1A5,5,0,0,1,95,22.42a3,3,0,0,1,2.32.84,3.68,3.68,0,0,1,.76,2.55V30.2C98.05,30.93,98.06,31.42,98.08,31.68Z"/><path class="cls-3" d="M108.87,31.37a8.15,8.15,0,0,0,.18,1,2,2,0,0,1-.83.21c-.32,0-.53-.4-.61-1.22a3.63,3.63,0,0,1-1.3,1,4.4,4.4,0,0,1-1.73.3,3.74,3.74,0,0,1-3.07-1.36,5.67,5.67,0,0,1-1.12-3.73,5.58,5.58,0,0,1,1.2-3.81,4.21,4.21,0,0,1,3.34-1.36,4.64,4.64,0,0,1,1.41.24,4.41,4.41,0,0,1,1.23.61v-5h1.23V30.2A9.41,9.41,0,0,0,108.87,31.37Zm-2.58-.07a4,4,0,0,0,1.28-1.17V24.46a3.34,3.34,0,0,0-1.18-.76,3.87,3.87,0,0,0-1.46-.31,2.89,2.89,0,0,0-2.43,1.08,4.93,4.93,0,0,0-.85,3.12,5.09,5.09,0,0,0,.77,3,2.63,2.63,0,0,0,2.25,1.05A3.34,3.34,0,0,0,106.29,31.3Z"/><path class="cls-3" d="M112.14,20v-.16A.72.72,0,0,1,113,19h.15a.72.72,0,0,1,.81.81V20a.72.72,0,0,1-.81.81H113A.72.72,0,0,1,112.14,20Zm.27,2.63h1.23v9.9h-1.23Z"/><path class="cls-3" d="M129.59,23.25a2.94,2.94,0,0,1,.81,2.14V32.5h-1.25V25.44a2.2,2.2,0,0,0-.46-1.54,1.86,1.86,0,0,0-1.43-.51,3.86,3.86,0,0,0-2.84,1.41c0,.19,0,.33,0,.43V32.5h-1.23V25.27a1.77,1.77,0,0,0-1.87-1.88,3.25,3.25,0,0,0-1.47.35,4.87,4.87,0,0,0-1.39,1.09V32.5h-1.23V26a12.75,12.75,0,0,0-.21-3.17,2.32,2.32,0,0,1,.92-.27c.34,0,.52.35.52,1v.08a4.19,4.19,0,0,1,1.41-.94,4.57,4.57,0,0,1,1.67-.29,3,3,0,0,1,1.51.39,2.71,2.71,0,0,1,1,1.05,5.46,5.46,0,0,1,1.58-1.1,4.74,4.74,0,0,1,1.83-.34A2.75,2.75,0,0,1,129.59,23.25Z"/><path class="cls-3" d="M141.36,27.68h-7.17a4.88,4.88,0,0,0,.84,2.91,2.65,2.65,0,0,0,2.22,1.05,3.35,3.35,0,0,0,1.65-.38A2.9,2.9,0,0,0,140,30.05a.4.4,0,0,1,.37-.23,1.58,1.58,0,0,1,.8.34A3.47,3.47,0,0,1,139.74,32a4.55,4.55,0,0,1-2.49.67,4.22,4.22,0,0,1-2.29-.62,3.88,3.88,0,0,1-1.5-1.78,6.65,6.65,0,0,1-.53-2.75,5.53,5.53,0,0,1,1.19-3.75,4.09,4.09,0,0,1,3.26-1.36,3.78,3.78,0,0,1,3,1.17,4.67,4.67,0,0,1,1.06,3.26C141.39,27.13,141.38,27.4,141.36,27.68Zm-1.23-1q0-3.24-2.8-3.24a2.83,2.83,0,0,0-2.16.82,3.94,3.94,0,0,0-.94,2.42Z"/><path class="cls-3" d="M151.5,31.68a2.48,2.48,0,0,0,.14.7,2.12,2.12,0,0,1-.94.21q-.27,0-.36-.39a8.2,8.2,0,0,1-.09-1.53V25.79a2.89,2.89,0,0,0-.47-1.83,1.85,1.85,0,0,0-1.51-.57A4.91,4.91,0,0,0,145,25v7.5h-1.23V26a12.75,12.75,0,0,0-.21-3.17,2.32,2.32,0,0,1,.92-.27c.34,0,.52.35.52,1v.17a5.74,5.74,0,0,1,1.66-1,5,5,0,0,1,1.78-.32,3,3,0,0,1,2.31.84,3.68,3.68,0,0,1,.76,2.55V30.2C151.47,30.93,151.48,31.42,151.5,31.68Z"/><path class="cls-3" d="M159.46,31.56a.85.85,0,0,1,.08.35.49.49,0,0,1-.29.48,3.22,3.22,0,0,1-1.49.29,2.68,2.68,0,0,1-1.88-.64,2.23,2.23,0,0,1-.7-1.72V23.57h-1.87v-1h1.87V19.9h1.23v2.7H159v1h-2.59v6.52c0,1,.43,1.51,1.29,1.51a4,4,0,0,0,1.55-.3A.71.71,0,0,1,159.46,31.56Z"/><path class="cls-3" d="M161.61,31.38a5.93,5.93,0,0,1-1.07-3.85c0-3.4,1.41-5.11,4.22-5.11S169,24.13,169,27.53a5.93,5.93,0,0,1-1.06,3.85,4.47,4.47,0,0,1-6.3,0Zm5.39-.71a5.5,5.5,0,0,0,.71-3.14,5.43,5.43,0,0,0-.71-3.11,3,3,0,0,0-4.48,0,5.35,5.35,0,0,0-.71,3.11,5.42,5.42,0,0,0,.71,3.14,3,3,0,0,0,4.48,0Z"/><path class="cls-3" d="M182.78,22.6a19.56,19.56,0,0,1-3.5,9.9h-1.17a21,21,0,0,1-2.43-4.72,20.35,20.35,0,0,1-1.06-5.18h1.22a21.27,21.27,0,0,0,.93,4.64,16.69,16.69,0,0,0,1.94,3.93,16.23,16.23,0,0,0,1.92-3.93,21.29,21.29,0,0,0,.92-4.64Z"/><path class="cls-3" d="M184.77,20v-.16a.72.72,0,0,1,.81-.81h.15a.72.72,0,0,1,.81.81V20a.72.72,0,0,1-.81.81h-.15A.72.72,0,0,1,184.77,20ZM185,22.6h1.23v9.9H185Z"/><path class="cls-3" d="M197,31.34a2.06,2.06,0,0,0,.48.85,1.17,1.17,0,0,1-.43.29,1,1,0,0,1-.46.11.7.7,0,0,1-.6-.41,2.77,2.77,0,0,1-.31-1.14,3.81,3.81,0,0,1-1.5,1.2,4.57,4.57,0,0,1-2,.44A3.3,3.3,0,0,1,190,32a2.32,2.32,0,0,1-.82-1.86,3,3,0,0,1,1.64-2.65,10.88,10.88,0,0,1,4.8-1.1v-.57A2.39,2.39,0,0,0,195,24a2.53,2.53,0,0,0-1.83-.58,3.3,3.3,0,0,0-1.47.33,5.47,5.47,0,0,0-1.44,1.11A.41.41,0,0,1,190,25a.64.64,0,0,1-.39-.16,1.6,1.6,0,0,1-.41-.44A5.8,5.8,0,0,1,191,22.92a5,5,0,0,1,2.2-.5,3.71,3.71,0,0,1,2.64.9,3.22,3.22,0,0,1,1,2.47V30A5,5,0,0,0,197,31.34Zm-2.85-.21a4.85,4.85,0,0,0,1.49-1.53V27.37c-3.46.15-5.18,1.05-5.18,2.72,0,1.06.62,1.58,1.85,1.58A3.42,3.42,0,0,0,194.1,31.13Z"/><path class="cls-3" d="M215.93,22.6a34.46,34.46,0,0,1-2.74,9.9h-1.11a35.28,35.28,0,0,1-1.49-3.74,24.91,24.91,0,0,1-.85-3.53,25.87,25.87,0,0,1-.88,3.57,33.09,33.09,0,0,1-1.5,3.7h-1.15a25.83,25.83,0,0,1-1.59-4.39,45.49,45.49,0,0,1-1.09-5.51h1.26a37.69,37.69,0,0,0,.78,4.6,20.71,20.71,0,0,0,1.25,3.66,26.61,26.61,0,0,0,2.34-8.26h1.19a27.08,27.08,0,0,0,2.32,8.3,25.61,25.61,0,0,0,1.86-8.3Z"/><path class="cls-3" d="M225.42,23.31a3.26,3.26,0,0,1,.9,2.42V32.5h-1.23V25.86a2.59,2.59,0,0,0-.57-1.8,2.15,2.15,0,0,0-1.66-.63,4.67,4.67,0,0,0-1.75.37,5.71,5.71,0,0,0-1.63,1V32.5h-1.23V18.26h1.23v5.35a6.19,6.19,0,0,1,1.69-.88,5.41,5.41,0,0,1,1.8-.31A3.35,3.35,0,0,1,225.42,23.31Z"/><path class="cls-3" d="M236.66,31.34a2.16,2.16,0,0,0,.47.85,1.22,1.22,0,0,1-.42.29,1,1,0,0,1-.46.11.7.7,0,0,1-.6-.41,2.92,2.92,0,0,1-.32-1.14,3.78,3.78,0,0,1-1.49,1.2,4.6,4.6,0,0,1-2,.44,3.29,3.29,0,0,1-2.2-.71,2.33,2.33,0,0,1-.83-1.86,2.94,2.94,0,0,1,1.65-2.65,10.88,10.88,0,0,1,4.8-1.1v-.57a2.39,2.39,0,0,0-.6-1.78,2.56,2.56,0,0,0-1.83-.58,3.3,3.3,0,0,0-1.47.33A5.66,5.66,0,0,0,230,24.87a.37.37,0,0,1-.27.11.64.64,0,0,1-.39-.16,1.48,1.48,0,0,1-.42-.44,5.83,5.83,0,0,1,1.85-1.46,5,5,0,0,1,2.2-.5,3.71,3.71,0,0,1,2.64.9,3.22,3.22,0,0,1,1,2.47V30A4.94,4.94,0,0,0,236.66,31.34Zm-2.86-.21a4.77,4.77,0,0,0,1.5-1.53V27.37c-3.46.15-5.19,1.05-5.19,2.72,0,1.06.62,1.58,1.86,1.58A3.37,3.37,0,0,0,233.8,31.13Z"/><path class="cls-3" d="M244.36,31.56a.72.72,0,0,1,.08.35.48.48,0,0,1-.29.48,3.22,3.22,0,0,1-1.49.29,2.65,2.65,0,0,1-1.87-.64,2.2,2.2,0,0,1-.7-1.72V23.57h-1.88v-1h1.88V19.9h1.22v2.7h2.59v1h-2.59v6.52c0,1,.43,1.51,1.3,1.51a4,4,0,0,0,1.54-.3A.55.55,0,0,1,244.36,31.56Z"/><path class="cls-3" d="M247.47,32.41a4.41,4.41,0,0,1-1.44-.72,1.24,1.24,0,0,1-.58-1,.68.68,0,0,1,.15-.43.87.87,0,0,1,.39-.26,4.22,4.22,0,0,0,1.4,1.24,4.07,4.07,0,0,0,1.82.38,2.49,2.49,0,0,0,1.72-.52,1.77,1.77,0,0,0,.59-1.38,1.3,1.3,0,0,0-.35-.94,2.29,2.29,0,0,0-.87-.54c-.34-.12-.81-.26-1.41-.41a15.67,15.67,0,0,1-1.68-.53,2.59,2.59,0,0,1-1.08-.76,2,2,0,0,1-.45-1.38,2.5,2.5,0,0,1,.49-1.55,2.87,2.87,0,0,1,1.24-.93,4,4,0,0,1,1.55-.31,4.65,4.65,0,0,1,2.06.45,3.37,3.37,0,0,1,1.45,1.32,1.14,1.14,0,0,1-.74.44.61.61,0,0,1-.45-.25,2.75,2.75,0,0,0-1-.74,3.29,3.29,0,0,0-1.37-.25,2.25,2.25,0,0,0-1.46.44,1.59,1.59,0,0,0-.54,1.33,1.14,1.14,0,0,0,.32.84,2.22,2.22,0,0,0,.81.5c.33.11.77.24,1.33.38a12.76,12.76,0,0,1,1.76.53,2.85,2.85,0,0,1,1.14.83,2.35,2.35,0,0,1,.47,1.53,2.61,2.61,0,0,1-1,2.12,4,4,0,0,1-2.62.79A5.55,5.55,0,0,1,247.47,32.41Z"/><path class="cls-3" d="M262.16,31.34a2.06,2.06,0,0,0,.48.85,1.22,1.22,0,0,1-.42.29,1.06,1.06,0,0,1-.46.11.7.7,0,0,1-.6-.41,2.76,2.76,0,0,1-.32-1.14,3.78,3.78,0,0,1-1.49,1.2,4.64,4.64,0,0,1-2,.44,3.26,3.26,0,0,1-2.19-.71,2.33,2.33,0,0,1-.83-1.86A2.94,2.94,0,0,1,256,27.46a10.8,10.8,0,0,1,4.79-1.1v-.57a2.39,2.39,0,0,0-.6-1.78,2.53,2.53,0,0,0-1.83-.58,3.29,3.29,0,0,0-1.46.33,5.5,5.5,0,0,0-1.45,1.11.37.37,0,0,1-.27.11.69.69,0,0,1-.4-.16,1.6,1.6,0,0,1-.41-.44,5.8,5.8,0,0,1,1.84-1.46,5.07,5.07,0,0,1,2.21-.5,3.74,3.74,0,0,1,2.64.9,3.22,3.22,0,0,1,1,2.47V30A5,5,0,0,0,262.16,31.34Zm-2.85-.21a4.75,4.75,0,0,0,1.49-1.53V27.37c-3.45.15-5.18,1.05-5.18,2.72,0,1.06.62,1.58,1.85,1.58A3.42,3.42,0,0,0,259.31,31.13Z"/><path class="cls-3" d="M272.49,23.74a6,6,0,0,1,1.06,3.79,6.24,6.24,0,0,1-.55,2.73,4.18,4.18,0,0,1-1.58,1.79,4.61,4.61,0,0,1-2.43.63,7.14,7.14,0,0,1-1.37-.13,6.5,6.5,0,0,1-1.24-.36v4.27h-1.22V26a12,12,0,0,0-.22-3.17,2.36,2.36,0,0,1,.92-.27c.35,0,.52.35.52,1v.08a4.1,4.1,0,0,1,1.38-.91,4.37,4.37,0,0,1,1.65-.32A3.73,3.73,0,0,1,272.49,23.74Zm-1.09,6.85a4.82,4.82,0,0,0,.85-3.06q0-4.09-2.84-4.1a3.69,3.69,0,0,0-1.61.38,4.54,4.54,0,0,0-1.42,1.08v6.24a6,6,0,0,0,2.61.54A2.89,2.89,0,0,0,271.4,30.59Z"/><path class="cls-3" d="M283.25,23.74a5.94,5.94,0,0,1,1.06,3.79,6.24,6.24,0,0,1-.55,2.73,4.06,4.06,0,0,1-1.58,1.79,4.57,4.57,0,0,1-2.42.63,7.16,7.16,0,0,1-1.38-.13,6.39,6.39,0,0,1-1.23-.36v4.27h-1.23V26a12.75,12.75,0,0,0-.21-3.17,2.32,2.32,0,0,1,.92-.27c.34,0,.52.35.52,1v.08a4,4,0,0,1,1.37-.91,4.44,4.44,0,0,1,1.65-.32A3.72,3.72,0,0,1,283.25,23.74Zm-1.09,6.85a4.82,4.82,0,0,0,.86-3.06q0-4.09-2.85-4.1a3.69,3.69,0,0,0-1.61.38,4.51,4.51,0,0,0-1.41,1.08v6.24a5.9,5.9,0,0,0,2.61.54A2.89,2.89,0,0,0,282.16,30.59Z"/></g></g></svg>